<?xml version="1.0" standalone="no"?><!DOCTYPE svg PUBLIC "-//W3C//DTD SVG 1.1//EN" "http://www.w3.org/Graphics/SVG/1.1/DTD/svg11.dtd"><svg t="1630923516024" class="icon" viewBox="0 0 1024 1024" version="1.1" xmlns="http://www.w3.org/2000/svg" p-id="5487" xmlns:xlink="http://www.w3.org/1999/xlink" width="200" height="200"><defs><style type="text/css"></style></defs><path d="M512 41.55265l-377.751363 251.834242v419.723736l377.751363 251.834242 377.751363-251.834242v-419.723736z" fill="#FFF4AA" p-id="5488"></path><path d="M512.125917 0L92.066402 251.750297v503.41665l420.059515 251.750297 420.101488-251.750297V251.750297L512.125917 0z m336.030824 706.688855l-336.030824 209.777924-336.072796-209.777924L176.221011 299.850637l335.904906-209.526089 336.030824 209.777924v406.586383z" fill="#F4B007" p-id="5489"></path><path d="M721.861868 335.359265a41.972374 41.972374 0 0 0-41.972373 41.972374v251.834242a41.972374 41.972374 0 1 0 83.944747 0v-251.834242a41.972374 41.972374 0 0 0-41.972374-41.972374zM533.363938 718.525065l-212.422183-125.917121a40.377423 40.377423 0 0 0-55.865229 15.361888 42.601959 42.601959 0 0 0 14.942165 57.334263l212.422183 125.917121a40.335451 40.335451 0 0 0 55.865229-15.361889c11.290569-20.104767 4.616961-45.749887-14.942165-57.334262z" fill="#F4B007" p-id="5490"></path></svg>